G04*
G04 #@! TF.GenerationSoftware,Altium Limited,Altium Designer,23.10.1 (27)*
G04*
G04 Layer_Color=255*
%FSLAX44Y44*%
%MOMM*%
G71*
G04*
G04 #@! TF.SameCoordinates,FE8EC528-225C-4A11-B971-79AFC16B1169*
G04*
G04*
G04 #@! TF.FilePolarity,Positive*
G04*
G01*
G75*
%ADD15R,1.6500X1.2000*%
%ADD16R,0.9000X0.8000*%
%ADD17R,1.4000X1.3000*%
%ADD18R,3.7000X1.7000*%
%ADD19R,1.8000X1.3000*%
%ADD20R,3.8000X2.0000*%
%ADD21R,1.5000X2.0000*%
%ADD22R,1.6000X1.5000*%
%ADD23R,2.0000X1.2500*%
%ADD24O,2.1000X1.4000*%
%ADD43C,3.0000*%
%ADD44C,2.2000*%
%ADD45C,2.0000*%
%ADD46C,1.8000*%
%ADD47R,1.8000X1.8000*%
D15*
X707378Y1068000D02*
D03*
Y1040000D02*
D03*
X598000Y1013000D02*
D03*
Y985000D02*
D03*
X734000Y1068000D02*
D03*
Y1040000D02*
D03*
X680835Y1039707D02*
D03*
Y1067707D02*
D03*
X654293D02*
D03*
Y1039707D02*
D03*
X549000Y1156000D02*
D03*
Y1128000D02*
D03*
X507000Y1077000D02*
D03*
Y1105000D02*
D03*
D16*
X655000Y1100000D02*
D03*
X675000Y1109500D02*
D03*
Y1090500D02*
D03*
X506000Y1142000D02*
D03*
X526000Y1151500D02*
D03*
Y1132500D02*
D03*
D17*
X737835Y989000D02*
D03*
Y1005000D02*
D03*
D18*
X727500Y1154500D02*
D03*
Y1095500D02*
D03*
D19*
X717750Y1214500D02*
D03*
Y1185500D02*
D03*
X612207Y1185000D02*
D03*
Y1214000D02*
D03*
D20*
X664707Y1166500D02*
D03*
D21*
X641707Y1229500D02*
D03*
X664707D02*
D03*
X687707D02*
D03*
D22*
X480000Y1079000D02*
D03*
Y1115000D02*
D03*
D23*
X481287Y1143750D02*
D03*
Y1181250D02*
D03*
D24*
X626500Y1074508D02*
D03*
Y1099908D02*
D03*
X535500Y1074508D02*
D03*
Y1099908D02*
D03*
D43*
X535000Y1224000D02*
D03*
D44*
X339400Y999437D02*
D03*
X390200D02*
D03*
X441000D02*
D03*
X504843Y1002250D02*
D03*
X555643D02*
D03*
D45*
X631143Y982000D02*
D03*
X656543D02*
D03*
X681943D02*
D03*
X707343D02*
D03*
Y1007400D02*
D03*
X681943D02*
D03*
X656543D02*
D03*
X631143D02*
D03*
D46*
X328475Y1187500D02*
D03*
X448475D02*
D03*
X328475Y1094790D02*
D03*
X448475D02*
D03*
D47*
X388475Y1207500D02*
D03*
M02*
