G04*
G04 #@! TF.GenerationSoftware,Altium Limited,Altium Designer,23.10.1 (27)*
G04*
G04 Layer_Color=65535*
%FSLAX44Y44*%
%MOMM*%
G71*
G04*
G04 #@! TF.SameCoordinates,FE8EC528-225C-4A11-B971-79AFC16B1169*
G04*
G04*
G04 #@! TF.FilePolarity,Positive*
G04*
G01*
G75*
%ADD10C,0.2000*%
%ADD11C,0.2500*%
%ADD12C,0.2540*%
%ADD13C,0.1500*%
%ADD14C,0.1524*%
G36*
X616543Y969700D02*
X625542D01*
X616543Y978700D01*
Y969700D01*
D02*
G37*
G36*
X612000Y1063077D02*
X605130D01*
Y1066888D01*
X608940Y1070697D01*
X612000D01*
Y1063077D01*
D02*
G37*
G36*
X697457Y1214500D02*
X698207Y1211500D01*
X696707D01*
X693707Y1214500D01*
Y1216500D01*
X697457Y1214500D01*
D02*
G37*
D10*
X693707Y1216000D02*
G03*
X698207Y1211500I4500J0D01*
G01*
X612000Y1070697D02*
G03*
X605130Y1063828I0J-6870D01*
G01*
X715378Y1077000D02*
X718378D01*
Y1031000D02*
Y1077000D01*
X715378Y1031000D02*
X718378D01*
X696378D02*
X699378D01*
X696378D02*
Y1077000D01*
X699378D01*
X696378Y1054000D02*
X718378D01*
X658000Y1107250D02*
Y1114500D01*
X666000D01*
X658000Y1085500D02*
Y1092750D01*
Y1085500D02*
X666000D01*
X672000Y1097500D02*
Y1102500D01*
X606000Y1022000D02*
X609000D01*
Y976000D02*
Y1022000D01*
X606000Y976000D02*
X609000D01*
X587000D02*
X590000D01*
X587000D02*
Y1022000D01*
X590000D01*
X587000Y999000D02*
X609000D01*
X742000Y1077000D02*
X745000D01*
Y1031000D02*
Y1077000D01*
X742000Y1031000D02*
X745000D01*
X723000D02*
X726000D01*
X723000D02*
Y1077000D01*
X726000D01*
X723000Y1054000D02*
X745000D01*
X744750Y1137000D02*
X753500D01*
Y1113000D02*
Y1137000D01*
X744750Y1113000D02*
X753500D01*
X744750Y1107000D02*
Y1143000D01*
X709750Y1107000D02*
Y1143000D01*
X698207Y1179500D02*
Y1214250D01*
X695957Y1216500D02*
X698207Y1214250D01*
X631207Y1216500D02*
X695957D01*
X693707Y1216000D02*
Y1216500D01*
X631207Y1179500D02*
Y1216500D01*
Y1179500D02*
X698207D01*
X308001Y958436D02*
Y1040436D01*
Y958436D02*
X466402D01*
Y1040436D01*
X308001D02*
X466402D01*
X509000Y1149250D02*
Y1156500D01*
X517000D01*
X509000Y1127500D02*
Y1134750D01*
Y1127500D02*
X517000D01*
X523000Y1139500D02*
Y1144500D01*
X481287Y1164500D02*
Y1169750D01*
X476037Y1159250D02*
X481287Y1164500D01*
X486537Y1159250D01*
X485287Y1190500D02*
X493287D01*
X488287Y1134500D02*
X494287D01*
Y1192440D01*
X485287Y1190500D02*
Y1192440D01*
X494287D01*
X468287D02*
X477287D01*
Y1190500D02*
Y1192440D01*
X468287Y1134500D02*
Y1192440D01*
Y1134500D02*
X474287D01*
X469287Y1190500D02*
X477287D01*
X476037Y1159250D02*
X486537D01*
X476037Y1164500D02*
X486537D01*
X481287Y1154000D02*
Y1159250D01*
X473444Y961248D02*
Y1043248D01*
Y961248D02*
X581044D01*
Y1043248D01*
X473444D02*
X581044D01*
X669835Y1030707D02*
X672835D01*
X669835D02*
Y1076707D01*
X672835D01*
X688835D02*
X691835D01*
Y1030707D02*
Y1076707D01*
X688835Y1030707D02*
X691835D01*
X669835Y1053707D02*
X691835D01*
X662293Y1076707D02*
X665293D01*
Y1030707D02*
Y1076707D01*
X662293Y1030707D02*
X665293D01*
X643292D02*
X646292D01*
X643292D02*
Y1076707D01*
X646292D01*
X643292Y1053707D02*
X665293D01*
X616543Y969700D02*
Y1019700D01*
X721543D01*
Y969700D02*
Y1019700D01*
X616543Y969700D02*
X721543D01*
X557000Y1165000D02*
X560000D01*
Y1119000D02*
Y1165000D01*
X557000Y1119000D02*
X560000D01*
X538000D02*
X541000D01*
X538000D02*
Y1165000D01*
X541000D01*
X538000Y1142000D02*
X560000D01*
X612000Y1063077D02*
Y1111338D01*
X550000Y1063077D02*
Y1111338D01*
Y1063077D02*
X612000D01*
X550000Y1111338D02*
X612000D01*
X496000Y1068000D02*
X499000D01*
X496000D02*
Y1114000D01*
X499000D01*
X515000D02*
X518000D01*
Y1068000D02*
Y1114000D01*
X515000Y1068000D02*
X518000D01*
X496000Y1091000D02*
X518000D01*
D11*
X701957Y1229500D02*
G03*
X701957Y1229500I-1250J0D01*
G01*
X636860Y1061807D02*
G03*
X636860Y1061807I-1250J0D01*
G01*
D12*
X750000Y1257460D02*
Y1262540D01*
X300000Y1257460D02*
Y1262540D01*
X734760Y1254920D02*
X750000Y1260000D01*
X734760Y1265080D02*
X750000Y1260000D01*
X300000D02*
X315240Y1254920D01*
X300000Y1260000D02*
X315240Y1265080D01*
X576039Y1260000D02*
X750000D01*
X300000D02*
X473961D01*
X277460Y1248961D02*
X282540D01*
X277460Y948961D02*
X282540D01*
X280000Y1248961D02*
X285080Y1233721D01*
X274920D02*
X280000Y1248961D01*
Y948961D02*
X285080Y964201D01*
X274920D02*
X280000Y948961D01*
Y1150000D02*
Y1248961D01*
Y948961D02*
Y1047922D01*
X387205Y1119870D02*
Y1184640D01*
X374505Y1107170D02*
X387205Y1119870D01*
X351645Y1110980D02*
X373235D01*
X351645Y1095740D02*
Y1110980D01*
X344025Y1095740D02*
X351645D01*
X403715Y1110980D02*
X425305D01*
Y1095740D02*
Y1110980D01*
Y1095740D02*
X432925D01*
X313475Y1226500D02*
X463475D01*
X313475Y1046500D02*
X463475D01*
Y1226500D01*
X313475Y1046500D02*
Y1226500D01*
D13*
X728835Y997000D02*
X746835D01*
X728835Y1014000D02*
X732835D01*
X728835Y980000D02*
Y1014000D01*
Y980000D02*
X732835D01*
X742835D02*
X746835D01*
Y1014000D01*
X742835D02*
X746835D01*
X706500Y1223750D02*
X709000D01*
X706500Y1176250D02*
Y1223750D01*
Y1176250D02*
X709000D01*
X726500D02*
X729000D01*
Y1223750D01*
X726500D02*
X729000D01*
X706500Y1200000D02*
X729000D01*
X469000Y1067790D02*
X472000D01*
X469000D02*
Y1124940D01*
X477460D01*
X482540D02*
X491000D01*
Y1067790D02*
Y1124940D01*
X488000Y1067790D02*
X491000D01*
X469000Y1097000D02*
X491000D01*
X476190Y1091920D02*
X480000Y1097000D01*
X483810Y1091920D01*
X480000Y1097000D02*
Y1099540D01*
Y1089380D02*
Y1091920D01*
X476190D02*
X483810D01*
X491000Y1124940D02*
Y1126210D01*
X482540D02*
X491000D01*
X482540Y1124940D02*
Y1126210D01*
X469000Y1124940D02*
Y1126210D01*
X477460D01*
Y1124940D02*
Y1126210D01*
X620957Y1175750D02*
X623457D01*
Y1223250D01*
X620957D02*
X623457D01*
X600957D02*
X603457D01*
X600957Y1175750D02*
Y1223250D01*
Y1175750D02*
X603457D01*
X600957Y1199500D02*
X623457D01*
X496737Y1052391D02*
X496604Y1062387D01*
X501601Y1062454D01*
X503290Y1060810D01*
X503334Y1057478D01*
X501690Y1055790D01*
X496692Y1055723D01*
X500024Y1055768D02*
X503400Y1052480D01*
X506622Y1060854D02*
X508265Y1062542D01*
X511597Y1062587D01*
X513286Y1060943D01*
X513308Y1059277D01*
X511664Y1057589D01*
X509998Y1057567D01*
X511664Y1057589D01*
X513352Y1055945D01*
X513374Y1054279D01*
X511730Y1052591D01*
X508399Y1052546D01*
X506710Y1054190D01*
X734334Y973332D02*
X732668Y974998D01*
X729335D01*
X727669Y973332D01*
Y966668D01*
X729335Y965002D01*
X732668D01*
X734334Y966668D01*
X737666Y973332D02*
X739332Y974998D01*
X742664D01*
X744331Y973332D01*
Y971666D01*
X742664Y970000D01*
X740998D01*
X742664D01*
X744331Y968334D01*
Y966668D01*
X742664Y965002D01*
X739332D01*
X737666Y966668D01*
X694668Y1160000D02*
X693002Y1158334D01*
Y1155002D01*
X694668Y1153335D01*
X696334D01*
X698000Y1155002D01*
Y1158334D01*
X699666Y1160000D01*
X701332D01*
X702998Y1158334D01*
Y1155002D01*
X701332Y1153335D01*
X702998Y1163332D02*
Y1166665D01*
Y1164998D01*
X693002D01*
X694668Y1163332D01*
X313690Y1234440D02*
Y1244437D01*
X318688D01*
X320354Y1242771D01*
Y1239438D01*
X318688Y1237772D01*
X313690D01*
X317022D02*
X320354Y1234440D01*
X323687Y1244437D02*
Y1234440D01*
X330351D01*
X333684D02*
X337016D01*
X335350D01*
Y1244437D01*
X333684Y1242771D01*
X695998Y1116669D02*
X686002D01*
Y1121668D01*
X687668Y1123334D01*
X691000D01*
X692666Y1121668D01*
Y1116669D01*
Y1120002D02*
X695998Y1123334D01*
X686002Y1126666D02*
Y1133331D01*
X687668D01*
X694332Y1126666D01*
X695998D01*
X621669Y1028002D02*
Y1037998D01*
X626668D01*
X628334Y1036332D01*
Y1033000D01*
X626668Y1031334D01*
X621669D01*
X625002D02*
X628334Y1028002D01*
X638331Y1037998D02*
X634998Y1036332D01*
X631666Y1033000D01*
Y1029668D01*
X633332Y1028002D01*
X636665D01*
X638331Y1029668D01*
Y1031334D01*
X636665Y1033000D01*
X631666D01*
X564669Y1154002D02*
Y1163998D01*
X569668D01*
X571334Y1162332D01*
Y1159000D01*
X569668Y1157334D01*
X564669D01*
X568002D02*
X571334Y1154002D01*
X581331Y1163998D02*
X574666D01*
Y1159000D01*
X577998Y1160666D01*
X579664D01*
X581331Y1159000D01*
Y1155668D01*
X579664Y1154002D01*
X576332D01*
X574666Y1155668D01*
X621669Y1043002D02*
Y1052998D01*
X626668D01*
X628334Y1051332D01*
Y1048000D01*
X626668Y1046334D01*
X621669D01*
X625002D02*
X628334Y1043002D01*
X636665D02*
Y1052998D01*
X631666Y1048000D01*
X638331D01*
X700998Y1095669D02*
X691002D01*
Y1100668D01*
X692668Y1102334D01*
X696000D01*
X697666Y1100668D01*
Y1095669D01*
Y1099002D02*
X700998Y1102334D01*
Y1112331D02*
Y1105666D01*
X694334Y1112331D01*
X692668D01*
X691002Y1110665D01*
Y1107332D01*
X692668Y1105666D01*
X589336Y959002D02*
Y968998D01*
X594334D01*
X596000Y967332D01*
Y964000D01*
X594334Y962334D01*
X589336D01*
X592668D02*
X596000Y959002D01*
X599332D02*
X602664D01*
X600998D01*
Y968998D01*
X599332Y967332D01*
X622334Y964998D02*
X619002D01*
X620668D01*
Y956668D01*
X619002Y955002D01*
X617336D01*
X615669Y956668D01*
X625666Y963332D02*
X627332Y964998D01*
X630664D01*
X632331Y963332D01*
Y961666D01*
X630664Y960000D01*
X628998D01*
X630664D01*
X632331Y958334D01*
Y956668D01*
X630664Y955002D01*
X627332D01*
X625666Y956668D01*
X413334Y977498D02*
X410002D01*
X411668D01*
Y969168D01*
X410002Y967502D01*
X408335D01*
X406669Y969168D01*
X423331Y967502D02*
X416666D01*
X423331Y974166D01*
Y975832D01*
X421665Y977498D01*
X418332D01*
X416666Y975832D01*
X577000Y1056998D02*
X573668D01*
X575334D01*
Y1048668D01*
X573668Y1047002D01*
X572002D01*
X570336Y1048668D01*
X580332Y1047002D02*
X583665D01*
X581998D01*
Y1056998D01*
X580332Y1055332D01*
X642002Y1112504D02*
Y1115836D01*
Y1114170D01*
X651998D01*
Y1112504D01*
Y1115836D01*
X643668Y1127499D02*
X642002Y1125833D01*
Y1122501D01*
X643668Y1120835D01*
X650332D01*
X651998Y1122501D01*
Y1125833D01*
X650332Y1127499D01*
X643668Y1130832D02*
X642002Y1132498D01*
Y1135830D01*
X643668Y1137496D01*
X645334D01*
X647000Y1135830D01*
Y1134164D01*
Y1135830D01*
X648666Y1137496D01*
X650332D01*
X651998Y1135830D01*
Y1132498D01*
X650332Y1130832D01*
X510002Y1162504D02*
Y1165836D01*
Y1164170D01*
X519998D01*
Y1162504D01*
Y1165836D01*
X511668Y1177499D02*
X510002Y1175833D01*
Y1172501D01*
X511668Y1170835D01*
X518332D01*
X519998Y1172501D01*
Y1175833D01*
X518332Y1177499D01*
X519998Y1187496D02*
Y1180832D01*
X513334Y1187496D01*
X511668D01*
X510002Y1185830D01*
Y1182498D01*
X511668Y1180832D01*
X630002Y1153170D02*
Y1156502D01*
Y1154836D01*
X639998D01*
Y1153170D01*
Y1156502D01*
X631668Y1168165D02*
X630002Y1166499D01*
Y1163167D01*
X631668Y1161501D01*
X638332D01*
X639998Y1163167D01*
Y1166499D01*
X638332Y1168165D01*
X639998Y1171498D02*
Y1174830D01*
Y1173164D01*
X630002D01*
X631668Y1171498D01*
X574002Y1116669D02*
X583998D01*
Y1121668D01*
X582332Y1123334D01*
X575668D01*
X574002Y1121668D01*
Y1116669D01*
X575668Y1126666D02*
X574002Y1128332D01*
Y1131665D01*
X575668Y1133331D01*
X577334D01*
X579000Y1131665D01*
Y1129998D01*
Y1131665D01*
X580666Y1133331D01*
X582332D01*
X583998Y1131665D01*
Y1128332D01*
X582332Y1126666D01*
X471669Y1062498D02*
Y1052502D01*
X476668D01*
X478334Y1054168D01*
Y1060832D01*
X476668Y1062498D01*
X471669D01*
X488331Y1052502D02*
X481666D01*
X488331Y1059166D01*
Y1060832D01*
X486665Y1062498D01*
X483332D01*
X481666Y1060832D01*
X473335Y1207498D02*
Y1197502D01*
X478334D01*
X480000Y1199168D01*
Y1205832D01*
X478334Y1207498D01*
X473335D01*
X483332Y1197502D02*
X486665D01*
X484998D01*
Y1207498D01*
X483332Y1205832D01*
X732334Y1236332D02*
X730668Y1237998D01*
X727336D01*
X725669Y1236332D01*
Y1229668D01*
X727336Y1228002D01*
X730668D01*
X732334Y1229668D01*
X742331Y1228002D02*
X735666D01*
X742331Y1234666D01*
Y1236332D01*
X740665Y1237998D01*
X737332D01*
X735666Y1236332D01*
X607000D02*
X605334Y1237998D01*
X602002D01*
X600336Y1236332D01*
Y1229668D01*
X602002Y1228002D01*
X605334D01*
X607000Y1229668D01*
X610332Y1228002D02*
X613665D01*
X611998D01*
Y1237998D01*
X610332Y1236332D01*
D14*
X484119Y1250859D02*
Y1266094D01*
X476501Y1258476D01*
X486658D01*
X501893Y1266094D02*
X491736D01*
Y1258476D01*
X496815Y1261015D01*
X499354D01*
X501893Y1258476D01*
Y1253398D01*
X499354Y1250859D01*
X494276D01*
X491736Y1253398D01*
X527285Y1250859D02*
X522206Y1255937D01*
Y1261015D01*
X527285Y1266094D01*
X534902Y1250859D02*
Y1261015D01*
X537441D01*
X539981Y1258476D01*
Y1250859D01*
Y1258476D01*
X542520Y1261015D01*
X545059Y1258476D01*
Y1250859D01*
X550137D02*
Y1261015D01*
X552677D01*
X555216Y1258476D01*
Y1250859D01*
Y1258476D01*
X557755Y1261015D01*
X560294Y1258476D01*
Y1250859D01*
X565373D02*
X570451Y1255937D01*
Y1261015D01*
X565373Y1266094D01*
X276446Y1050462D02*
X273906Y1053002D01*
Y1058080D01*
X276446Y1060619D01*
X278985D01*
X281524Y1058080D01*
Y1055541D01*
Y1058080D01*
X284063Y1060619D01*
X286602D01*
X289142Y1058080D01*
Y1053002D01*
X286602Y1050462D01*
X276446Y1065697D02*
X273906Y1068237D01*
Y1073315D01*
X276446Y1075854D01*
X286602D01*
X289142Y1073315D01*
Y1068237D01*
X286602Y1065697D01*
X276446D01*
X289142Y1101246D02*
X284063Y1096168D01*
X278985D01*
X273906Y1101246D01*
X289142Y1108864D02*
X278985D01*
Y1111403D01*
X281524Y1113942D01*
X289142D01*
X281524D01*
X278985Y1116481D01*
X281524Y1119020D01*
X289142D01*
Y1124099D02*
X278985D01*
Y1126638D01*
X281524Y1129177D01*
X289142D01*
X281524D01*
X278985Y1131716D01*
X281524Y1134255D01*
X289142D01*
Y1139334D02*
X284063Y1144412D01*
X278985D01*
X273906Y1139334D01*
M02*
