G04*
G04 #@! TF.GenerationSoftware,Altium Limited,Altium Designer,23.10.1 (27)*
G04*
G04 Layer_Color=2752767*
%FSLAX44Y44*%
%MOMM*%
G71*
G04*
G04 #@! TF.SameCoordinates,FE8EC528-225C-4A11-B971-79AFC16B1169*
G04*
G04*
G04 #@! TF.FilePolarity,Positive*
G04*
G01*
G75*
%ADD53C,0.1270*%
%ADD54C,0.1693*%
D53*
X535000Y1218920D02*
X537540Y1221460D01*
X540080D01*
X537540Y1224000D01*
X540080Y1226540D01*
X537540D01*
X535000Y1229080D01*
X532460Y1226540D01*
X529920D01*
X532460Y1224000D01*
X529920Y1221460D01*
X532460D01*
X535000Y1218920D01*
X626063Y976920D02*
Y987080D01*
X636222D01*
Y976920D01*
X626063D01*
X651462D02*
Y987080D01*
X661622D01*
Y976920D01*
X651462D01*
X676862D02*
Y987080D01*
X687022D01*
Y976920D01*
X676862D01*
X702262D02*
Y987080D01*
X712422D01*
Y976920D01*
X702262D01*
Y1002320D02*
Y1012480D01*
X712422D01*
Y1002320D01*
X702262D01*
X676862D02*
Y1012480D01*
X687022D01*
Y1002320D01*
X676862D01*
X651462D02*
Y1012480D01*
X661622D01*
Y1002320D01*
X651462D01*
X626063D02*
Y1012480D01*
X636222D01*
Y1002320D01*
X626063D01*
X328475Y1182420D02*
X323395Y1192580D01*
X333555D01*
X328475Y1182420D01*
X448475D02*
X443395Y1192580D01*
X453555D01*
X448475Y1182420D01*
X328475Y1089710D02*
X323395Y1099870D01*
X333555D01*
X328475Y1089710D01*
X448475D02*
X443395Y1099870D01*
X453555D01*
X448475Y1089710D01*
X388475Y1202420D02*
X383395Y1212580D01*
X393555D01*
X388475Y1202420D01*
X494920Y1199920D02*
X497460Y1205000D01*
X494920Y1210080D01*
X500000Y1207540D01*
X505080Y1210080D01*
X502540Y1205000D01*
X505080Y1199920D01*
X500000Y1202460D01*
X494920Y1199920D01*
X552420Y1047420D02*
X554960Y1052500D01*
X552420Y1057580D01*
X557500Y1055040D01*
X562580Y1057580D01*
X560040Y1052500D01*
X562580Y1047420D01*
X557500Y1049960D01*
X552420Y1047420D01*
X677420Y1199920D02*
X679960Y1205000D01*
X677420Y1210080D01*
X682500Y1207540D01*
X687580Y1210080D01*
X685040Y1205000D01*
X687580Y1199920D01*
X682500Y1202460D01*
X677420Y1199920D01*
Y1184920D02*
X679960Y1190000D01*
X677420Y1195080D01*
X682500Y1192540D01*
X687580Y1195080D01*
X685040Y1190000D01*
X687580Y1184920D01*
X682500Y1187460D01*
X677420Y1184920D01*
X607420Y1119920D02*
X609960Y1125000D01*
X607420Y1130080D01*
X612500Y1127540D01*
X617580Y1130080D01*
X615040Y1125000D01*
X617580Y1119920D01*
X612500Y1122460D01*
X607420Y1119920D01*
X494920Y1157420D02*
X497460Y1162500D01*
X494920Y1167580D01*
X500000Y1165040D01*
X505080Y1167580D01*
X502540Y1162500D01*
X505080Y1157420D01*
X500000Y1159960D01*
X494920Y1157420D01*
X492420Y1117420D02*
X494960Y1122500D01*
X492420Y1127580D01*
X497500Y1125040D01*
X502580Y1127580D01*
X500040Y1122500D01*
X502580Y1117420D01*
X497500Y1119960D01*
X492420Y1117420D01*
X524920Y1159920D02*
X527460Y1165000D01*
X524920Y1170080D01*
X530000Y1167540D01*
X535080Y1170080D01*
X532540Y1165000D01*
X535080Y1159920D01*
X530000Y1162460D01*
X524920Y1159920D01*
X684920Y1079920D02*
X687460Y1085000D01*
X684920Y1090080D01*
X690000Y1087540D01*
X695080Y1090080D01*
X692540Y1085000D01*
X695080Y1079920D01*
X690000Y1082460D01*
X684920Y1079920D01*
X722420Y1109920D02*
X724960Y1115000D01*
X722420Y1120080D01*
X727500Y1117540D01*
X732580Y1120080D01*
X730040Y1115000D01*
X732580Y1109920D01*
X727500Y1112460D01*
X722420Y1109920D01*
Y1132420D02*
X724960Y1137500D01*
X722420Y1142580D01*
X727500Y1140040D01*
X732580Y1142580D01*
X730040Y1137500D01*
X732580Y1132420D01*
X727500Y1134960D01*
X722420Y1132420D01*
X669920Y1129920D02*
X672460Y1135000D01*
X669920Y1140080D01*
X675000Y1137540D01*
X680080Y1140080D01*
X677540Y1135000D01*
X680080Y1129920D01*
X675000Y1132460D01*
X669920Y1129920D01*
X642420Y1184920D02*
X644960Y1190000D01*
X642420Y1195080D01*
X647500Y1192540D01*
X652580Y1195080D01*
X650040Y1190000D01*
X652580Y1184920D01*
X647500Y1187460D01*
X642420Y1184920D01*
Y1199920D02*
X644960Y1205000D01*
X642420Y1210080D01*
X647500Y1207540D01*
X652580Y1210080D01*
X650040Y1205000D01*
X652580Y1199920D01*
X647500Y1202460D01*
X642420Y1199920D01*
X607420Y1042420D02*
X609960Y1047500D01*
X607420Y1052580D01*
X612500Y1050040D01*
X617580Y1052580D01*
X615040Y1047500D01*
X617580Y1042420D01*
X612500Y1044960D01*
X607420Y1042420D01*
X729920Y954920D02*
X732460Y960000D01*
X729920Y965080D01*
X735000Y962540D01*
X740080Y965080D01*
X737540Y960000D01*
X740080Y954920D01*
X735000Y957460D01*
X729920Y954920D01*
X662420D02*
X664960Y960000D01*
X662420Y965080D01*
X667500Y962540D01*
X672580Y965080D01*
X670040Y960000D01*
X672580Y954920D01*
X667500Y957460D01*
X662420Y954920D01*
X607420Y1154920D02*
X609960Y1160000D01*
X607420Y1165080D01*
X612500Y1162540D01*
X617580Y1165080D01*
X615040Y1160000D01*
X617580Y1154920D01*
X612500Y1157460D01*
X607420Y1154920D01*
X712420Y1229920D02*
X714960Y1235000D01*
X712420Y1240080D01*
X717500Y1237540D01*
X722580Y1240080D01*
X720040Y1235000D01*
X722580Y1229920D01*
X717500Y1232460D01*
X712420Y1229920D01*
X737420Y1167420D02*
X739960Y1172500D01*
X737420Y1177580D01*
X742500Y1175040D01*
X747580Y1177580D01*
X745040Y1172500D01*
X747580Y1167420D01*
X742500Y1169960D01*
X737420Y1167420D01*
D54*
X344480Y999437D02*
G03*
X344480Y999437I-5080J0D01*
G01*
X395280D02*
G03*
X395280Y999437I-5080J0D01*
G01*
X446080D02*
G03*
X446080Y999437I-5080J0D01*
G01*
X509923Y1002250D02*
G03*
X509923Y1002250I-5080J0D01*
G01*
X560723D02*
G03*
X560723Y1002250I-5080J0D01*
G01*
M02*
