G04*
G04 #@! TF.GenerationSoftware,Altium Limited,Altium Designer,23.10.1 (27)*
G04*
G04 Layer_Color=128*
%FSLAX44Y44*%
%MOMM*%
G71*
G04*
G04 #@! TF.SameCoordinates,FE8EC528-225C-4A11-B971-79AFC16B1169*
G04*
G04*
G04 #@! TF.FilePolarity,Positive*
G04*
G01*
G75*
%ADD53C,0.1270*%
D53*
X520000Y1224000D02*
X550000D01*
X535000Y1209000D02*
Y1239000D01*
X333900Y999437D02*
X344900D01*
X339400Y993938D02*
Y1004938D01*
X384700Y999437D02*
X395700D01*
X390200Y993938D02*
Y1004938D01*
X435500Y999437D02*
X446500D01*
X441000Y993938D02*
Y1004938D01*
X499343Y1002250D02*
X510343D01*
X504843Y996750D02*
Y1007750D01*
X550143Y1002250D02*
X561143D01*
X555643Y996750D02*
Y1007750D01*
X625643Y982000D02*
X636642D01*
X631143Y976500D02*
Y987500D01*
X651042Y982000D02*
X662042D01*
X656543Y976500D02*
Y987500D01*
X676442Y982000D02*
X687442D01*
X681943Y976500D02*
Y987500D01*
X701842Y982000D02*
X712842D01*
X707343Y976500D02*
Y987500D01*
X701842Y1007400D02*
X712842D01*
X707343Y1001900D02*
Y1012900D01*
X676442Y1007400D02*
X687442D01*
X681943Y1001900D02*
Y1012900D01*
X651042Y1007400D02*
X662042D01*
X656543Y1001900D02*
Y1012900D01*
X625643Y1007400D02*
X636642D01*
X631143Y1001900D02*
Y1012900D01*
X321975Y1187500D02*
X334975D01*
X328475Y1181000D02*
Y1194000D01*
X441975Y1187500D02*
X454975D01*
X448475Y1181000D02*
Y1194000D01*
X321975Y1094790D02*
X334975D01*
X328475Y1088290D02*
Y1101290D01*
X441975Y1094790D02*
X454975D01*
X448475Y1088290D02*
Y1101290D01*
X381975Y1207500D02*
X394975D01*
X388475Y1201000D02*
Y1214000D01*
X498500Y1205000D02*
X501500D01*
X500000Y1203500D02*
Y1206500D01*
X556000Y1052500D02*
X559000D01*
X557500Y1051000D02*
Y1054000D01*
X681000Y1205000D02*
X684000D01*
X682500Y1203500D02*
Y1206500D01*
X681000Y1190000D02*
X684000D01*
X682500Y1188500D02*
Y1191500D01*
X611000Y1125000D02*
X614000D01*
X612500Y1123500D02*
Y1126500D01*
X498500Y1162500D02*
X501500D01*
X500000Y1161000D02*
Y1164000D01*
X496000Y1122500D02*
X499000D01*
X497500Y1121000D02*
Y1124000D01*
X528500Y1165000D02*
X531500D01*
X530000Y1163500D02*
Y1166500D01*
X688500Y1085000D02*
X691500D01*
X690000Y1083500D02*
Y1086500D01*
X726000Y1115000D02*
X729000D01*
X727500Y1113500D02*
Y1116500D01*
X726000Y1137500D02*
X729000D01*
X727500Y1136000D02*
Y1139000D01*
X673500Y1135000D02*
X676500D01*
X675000Y1133500D02*
Y1136500D01*
X646000Y1190000D02*
X649000D01*
X647500Y1188500D02*
Y1191500D01*
X646000Y1205000D02*
X649000D01*
X647500Y1203500D02*
Y1206500D01*
X611000Y1047500D02*
X614000D01*
X612500Y1046000D02*
Y1049000D01*
X733500Y960000D02*
X736500D01*
X735000Y958500D02*
Y961500D01*
X666000Y960000D02*
X669000D01*
X667500Y958500D02*
Y961500D01*
X611000Y1160000D02*
X614000D01*
X612500Y1158500D02*
Y1161500D01*
X716000Y1235000D02*
X719000D01*
X717500Y1233500D02*
Y1236500D01*
X741000Y1172500D02*
X744000D01*
X742500Y1171000D02*
Y1174000D01*
M02*
