G04*
G04 #@! TF.GenerationSoftware,Altium Limited,Altium Designer,23.10.1 (27)*
G04*
G04 Layer_Physical_Order=2*
G04 Layer_Color=16711680*
%FSLAX44Y44*%
%MOMM*%
G71*
G04*
G04 #@! TF.SameCoordinates,FE8EC528-225C-4A11-B971-79AFC16B1169*
G04*
G04*
G04 #@! TF.FilePolarity,Positive*
G04*
G01*
G75*
%ADD41C,0.5000*%
%ADD42C,2.0000*%
%ADD43C,3.0000*%
%ADD44C,2.2000*%
%ADD45C,2.0000*%
%ADD46C,1.8000*%
%ADD47R,1.8000X1.8000*%
%ADD48C,0.6000*%
%ADD49C,1.0000*%
G36*
X747500Y1235000D02*
Y1177131D01*
X746230Y1176605D01*
X745638Y1177197D01*
X743602Y1178040D01*
X741398D01*
X739362Y1177197D01*
X737803Y1175638D01*
X736960Y1173602D01*
Y1171398D01*
X737361Y1170429D01*
Y1019286D01*
X720147Y1002072D01*
X719849Y1002202D01*
X719097Y1002818D01*
X719883Y1005749D01*
Y1009051D01*
X719028Y1012240D01*
X717377Y1015100D01*
X715042Y1017434D01*
X712183Y1019085D01*
X708994Y1019940D01*
X705692D01*
X702502Y1019085D01*
X699643Y1017434D01*
X697308Y1015100D01*
X695657Y1012240D01*
X695300Y1010907D01*
X693985D01*
X693628Y1012240D01*
X691977Y1015100D01*
X689642Y1017434D01*
X686783Y1019085D01*
X683594Y1019940D01*
X680292D01*
X677102Y1019085D01*
X674243Y1017434D01*
X671908Y1015100D01*
X670257Y1012240D01*
X669900Y1010907D01*
X668585D01*
X668228Y1012240D01*
X666577Y1015100D01*
X664242Y1017434D01*
X661383Y1019085D01*
X658194Y1019940D01*
X654892D01*
X651702Y1019085D01*
X648843Y1017434D01*
X646508Y1015100D01*
X644857Y1012240D01*
X644500Y1010907D01*
X643185D01*
X642828Y1012240D01*
X641177Y1015100D01*
X638842Y1017434D01*
X635983Y1019085D01*
X632794Y1019940D01*
X632412D01*
Y1007400D01*
X631143D01*
Y1006130D01*
X618602D01*
Y1005749D01*
X619457Y1002560D01*
X621108Y999700D01*
X623443Y997365D01*
X626302Y995715D01*
X627635Y995357D01*
Y994043D01*
X626302Y993685D01*
X623443Y992035D01*
X621108Y989700D01*
X619457Y986840D01*
X618602Y983651D01*
Y980349D01*
X619457Y977160D01*
X621108Y974300D01*
X623443Y971965D01*
X626302Y970315D01*
X629492Y969460D01*
X632794D01*
X635983Y970315D01*
X638842Y971965D01*
X641177Y974300D01*
X642828Y977160D01*
X643185Y978493D01*
X644500D01*
X644857Y977160D01*
X646508Y974300D01*
X648843Y971965D01*
X651702Y970315D01*
X654892Y969460D01*
X658194D01*
X661383Y970315D01*
X664242Y971965D01*
X666577Y974300D01*
X668228Y977160D01*
X668585Y978493D01*
X669900D01*
X670257Y977160D01*
X671908Y974300D01*
X674243Y971965D01*
X677102Y970315D01*
X680292Y969460D01*
X683594D01*
X686783Y970315D01*
X689642Y971965D01*
X691977Y974300D01*
X693628Y977160D01*
X693985Y978493D01*
X695300D01*
X695657Y977160D01*
X697308Y974300D01*
X699643Y971965D01*
X702502Y970315D01*
X705692Y969460D01*
X708994D01*
X712183Y970315D01*
X715042Y971965D01*
X717377Y974300D01*
X719028Y977160D01*
X719883Y980349D01*
Y983651D01*
X719117Y986507D01*
X746134Y1013524D01*
X746230Y1013668D01*
X747500Y1013283D01*
Y965000D01*
X741810Y959310D01*
X740540Y959836D01*
Y961102D01*
X739697Y963138D01*
X738138Y964697D01*
X736270Y965470D01*
Y960000D01*
X735000D01*
Y958730D01*
X729530D01*
X730303Y956862D01*
X730895Y956270D01*
X730369Y955000D01*
X672131D01*
X671605Y956270D01*
X672197Y956862D01*
X672970Y958730D01*
X662030D01*
X662803Y956862D01*
X663395Y956270D01*
X662869Y955000D01*
X472500D01*
X470000Y957500D01*
Y1225000D01*
X517460D01*
Y1222272D01*
X518134Y1218884D01*
X519456Y1215692D01*
X521376Y1212819D01*
X523819Y1210376D01*
X526692Y1208456D01*
X529884Y1207134D01*
X533273Y1206460D01*
X536727D01*
X540116Y1207134D01*
X543308Y1208456D01*
X546181Y1210376D01*
X548624Y1212819D01*
X550544Y1215692D01*
X551866Y1218884D01*
X552540Y1222272D01*
Y1225000D01*
X570000D01*
Y1030000D01*
X572500Y1027500D01*
X594000Y1049000D01*
Y1234000D01*
X607500Y1247500D01*
X735000D01*
X747500Y1235000D01*
D02*
G37*
%LPC*%
G36*
X718770Y1240470D02*
Y1236270D01*
X722970D01*
X722197Y1238138D01*
X720638Y1239697D01*
X718770Y1240470D01*
D02*
G37*
G36*
X716230D02*
X714362Y1239697D01*
X712803Y1238138D01*
X712030Y1236270D01*
X716230D01*
Y1240470D01*
D02*
G37*
G36*
X722970Y1233730D02*
X718770D01*
Y1229530D01*
X720638Y1230303D01*
X722197Y1231862D01*
X722970Y1233730D01*
D02*
G37*
G36*
X716230D02*
X712030D01*
X712803Y1231862D01*
X714362Y1230303D01*
X716230Y1229530D01*
Y1233730D01*
D02*
G37*
G36*
X683770Y1210470D02*
Y1206270D01*
X687970D01*
X687197Y1208138D01*
X685638Y1209697D01*
X683770Y1210470D01*
D02*
G37*
G36*
X681230D02*
X679362Y1209697D01*
X677803Y1208138D01*
X677030Y1206270D01*
X681230D01*
Y1210470D01*
D02*
G37*
G36*
X648770D02*
Y1206270D01*
X652970D01*
X652197Y1208138D01*
X650638Y1209697D01*
X648770Y1210470D01*
D02*
G37*
G36*
X646230D02*
X644362Y1209697D01*
X642803Y1208138D01*
X642030Y1206270D01*
X646230D01*
Y1210470D01*
D02*
G37*
G36*
X501270D02*
Y1206270D01*
X505470D01*
X504697Y1208138D01*
X503138Y1209697D01*
X501270Y1210470D01*
D02*
G37*
G36*
X498730D02*
X496862Y1209697D01*
X495303Y1208138D01*
X494530Y1206270D01*
X498730D01*
Y1210470D01*
D02*
G37*
G36*
X687970Y1203730D02*
X683770D01*
Y1199530D01*
X685638Y1200303D01*
X687197Y1201862D01*
X687970Y1203730D01*
D02*
G37*
G36*
X681230D02*
X677030D01*
X677803Y1201862D01*
X679362Y1200303D01*
X681230Y1199530D01*
Y1203730D01*
D02*
G37*
G36*
X652970D02*
X648770D01*
Y1199530D01*
X650638Y1200303D01*
X652197Y1201862D01*
X652970Y1203730D01*
D02*
G37*
G36*
X646230D02*
X642030D01*
X642803Y1201862D01*
X644362Y1200303D01*
X646230Y1199530D01*
Y1203730D01*
D02*
G37*
G36*
X505470D02*
X501270D01*
Y1199530D01*
X503138Y1200303D01*
X504697Y1201862D01*
X505470Y1203730D01*
D02*
G37*
G36*
X498730D02*
X494530D01*
X495303Y1201862D01*
X496862Y1200303D01*
X498730Y1199530D01*
Y1203730D01*
D02*
G37*
G36*
X683770Y1195470D02*
Y1191270D01*
X687970D01*
X687197Y1193138D01*
X685638Y1194697D01*
X683770Y1195470D01*
D02*
G37*
G36*
X681230D02*
X679362Y1194697D01*
X677803Y1193138D01*
X677030Y1191270D01*
X681230D01*
Y1195470D01*
D02*
G37*
G36*
X648770D02*
Y1191270D01*
X652970D01*
X652197Y1193138D01*
X650638Y1194697D01*
X648770Y1195470D01*
D02*
G37*
G36*
X646230D02*
X644362Y1194697D01*
X642803Y1193138D01*
X642030Y1191270D01*
X646230D01*
Y1195470D01*
D02*
G37*
G36*
X687970Y1188730D02*
X683770D01*
Y1184530D01*
X685638Y1185303D01*
X687197Y1186862D01*
X687970Y1188730D01*
D02*
G37*
G36*
X681230D02*
X677030D01*
X677803Y1186862D01*
X679362Y1185303D01*
X681230Y1184530D01*
Y1188730D01*
D02*
G37*
G36*
X652970D02*
X648770D01*
Y1184530D01*
X650638Y1185303D01*
X652197Y1186862D01*
X652970Y1188730D01*
D02*
G37*
G36*
X646230D02*
X642030D01*
X642803Y1186862D01*
X644362Y1185303D01*
X646230Y1184530D01*
Y1188730D01*
D02*
G37*
G36*
X531270Y1170470D02*
Y1166270D01*
X535470D01*
X534697Y1168138D01*
X533138Y1169697D01*
X531270Y1170470D01*
D02*
G37*
G36*
X528730D02*
X526862Y1169697D01*
X525303Y1168138D01*
X524530Y1166270D01*
X528730D01*
Y1170470D01*
D02*
G37*
G36*
X501270Y1167970D02*
Y1163770D01*
X505470D01*
X504697Y1165638D01*
X503138Y1167197D01*
X501270Y1167970D01*
D02*
G37*
G36*
X498730D02*
X496862Y1167197D01*
X495303Y1165638D01*
X494530Y1163770D01*
X498730D01*
Y1167970D01*
D02*
G37*
G36*
X613770Y1165470D02*
Y1161270D01*
X617970D01*
X617197Y1163138D01*
X615638Y1164697D01*
X613770Y1165470D01*
D02*
G37*
G36*
X611230D02*
X609362Y1164697D01*
X607803Y1163138D01*
X607030Y1161270D01*
X611230D01*
Y1165470D01*
D02*
G37*
G36*
X535470Y1163730D02*
X531270D01*
Y1159530D01*
X533138Y1160303D01*
X534697Y1161862D01*
X535470Y1163730D01*
D02*
G37*
G36*
X528730D02*
X524530D01*
X525303Y1161862D01*
X526862Y1160303D01*
X528730Y1159530D01*
Y1163730D01*
D02*
G37*
G36*
X505470Y1161230D02*
X501270D01*
Y1157030D01*
X503138Y1157803D01*
X504697Y1159362D01*
X505470Y1161230D01*
D02*
G37*
G36*
X498730D02*
X494530D01*
X495303Y1159362D01*
X496862Y1157803D01*
X498730Y1157030D01*
Y1161230D01*
D02*
G37*
G36*
X617970Y1158730D02*
X613770D01*
Y1154530D01*
X615638Y1155303D01*
X617197Y1156862D01*
X617970Y1158730D01*
D02*
G37*
G36*
X611230D02*
X607030D01*
X607803Y1156862D01*
X609362Y1155303D01*
X611230Y1154530D01*
Y1158730D01*
D02*
G37*
G36*
X728770Y1142970D02*
Y1138770D01*
X732970D01*
X732197Y1140638D01*
X730638Y1142197D01*
X728770Y1142970D01*
D02*
G37*
G36*
X726230D02*
X724362Y1142197D01*
X722803Y1140638D01*
X722030Y1138770D01*
X726230D01*
Y1142970D01*
D02*
G37*
G36*
X676270Y1140470D02*
Y1136270D01*
X680470D01*
X679697Y1138138D01*
X678138Y1139697D01*
X676270Y1140470D01*
D02*
G37*
G36*
X673730D02*
X671862Y1139697D01*
X670303Y1138138D01*
X669530Y1136270D01*
X673730D01*
Y1140470D01*
D02*
G37*
G36*
X732970Y1136230D02*
X728770D01*
Y1132030D01*
X730638Y1132803D01*
X732197Y1134362D01*
X732970Y1136230D01*
D02*
G37*
G36*
X726230D02*
X722030D01*
X722803Y1134362D01*
X724362Y1132803D01*
X726230Y1132030D01*
Y1136230D01*
D02*
G37*
G36*
X680470Y1133730D02*
X676270D01*
Y1129530D01*
X678138Y1130303D01*
X679697Y1131862D01*
X680470Y1133730D01*
D02*
G37*
G36*
X673730D02*
X669530D01*
X670303Y1131862D01*
X671862Y1130303D01*
X673730Y1129530D01*
Y1133730D01*
D02*
G37*
G36*
X613770Y1130470D02*
Y1126270D01*
X617970D01*
X617197Y1128138D01*
X615638Y1129697D01*
X613770Y1130470D01*
D02*
G37*
G36*
X611230D02*
X609362Y1129697D01*
X607803Y1128138D01*
X607030Y1126270D01*
X611230D01*
Y1130470D01*
D02*
G37*
G36*
X498770Y1127970D02*
Y1123770D01*
X502970D01*
X502197Y1125638D01*
X500638Y1127197D01*
X498770Y1127970D01*
D02*
G37*
G36*
X496230D02*
X494362Y1127197D01*
X492803Y1125638D01*
X492030Y1123770D01*
X496230D01*
Y1127970D01*
D02*
G37*
G36*
X617970Y1123730D02*
X613770D01*
Y1119530D01*
X615638Y1120303D01*
X617197Y1121862D01*
X617970Y1123730D01*
D02*
G37*
G36*
X611230D02*
X607030D01*
X607803Y1121862D01*
X609362Y1120303D01*
X611230Y1119530D01*
Y1123730D01*
D02*
G37*
G36*
X502970Y1121230D02*
X498770D01*
Y1117030D01*
X500638Y1117803D01*
X502197Y1119362D01*
X502970Y1121230D01*
D02*
G37*
G36*
X496230D02*
X492030D01*
X492803Y1119362D01*
X494362Y1117803D01*
X496230Y1117030D01*
Y1121230D01*
D02*
G37*
G36*
X728770Y1120470D02*
Y1116270D01*
X732970D01*
X732197Y1118138D01*
X730638Y1119697D01*
X728770Y1120470D01*
D02*
G37*
G36*
X726230D02*
X724362Y1119697D01*
X722803Y1118138D01*
X722030Y1116270D01*
X726230D01*
Y1120470D01*
D02*
G37*
G36*
X732970Y1113730D02*
X728770D01*
Y1109530D01*
X730638Y1110303D01*
X732197Y1111862D01*
X732970Y1113730D01*
D02*
G37*
G36*
X726230D02*
X722030D01*
X722803Y1111862D01*
X724362Y1110303D01*
X726230Y1109530D01*
Y1113730D01*
D02*
G37*
G36*
X691270Y1090470D02*
Y1086270D01*
X695470D01*
X694697Y1088138D01*
X693138Y1089697D01*
X691270Y1090470D01*
D02*
G37*
G36*
X688730D02*
X686862Y1089697D01*
X685303Y1088138D01*
X684530Y1086270D01*
X688730D01*
Y1090470D01*
D02*
G37*
G36*
X695470Y1083730D02*
X691270D01*
Y1079530D01*
X693138Y1080303D01*
X694697Y1081862D01*
X695470Y1083730D01*
D02*
G37*
G36*
X688730D02*
X684530D01*
X685303Y1081862D01*
X686862Y1080303D01*
X688730Y1079530D01*
Y1083730D01*
D02*
G37*
G36*
X558770Y1057970D02*
Y1053770D01*
X562970D01*
X562197Y1055638D01*
X560638Y1057197D01*
X558770Y1057970D01*
D02*
G37*
G36*
X556230D02*
X554362Y1057197D01*
X552803Y1055638D01*
X552030Y1053770D01*
X556230D01*
Y1057970D01*
D02*
G37*
G36*
X613770Y1052970D02*
Y1048770D01*
X617970D01*
X617197Y1050638D01*
X615638Y1052197D01*
X613770Y1052970D01*
D02*
G37*
G36*
X611230D02*
X609362Y1052197D01*
X607803Y1050638D01*
X607030Y1048770D01*
X611230D01*
Y1052970D01*
D02*
G37*
G36*
X562970Y1051230D02*
X558770D01*
Y1047030D01*
X560638Y1047803D01*
X562197Y1049362D01*
X562970Y1051230D01*
D02*
G37*
G36*
X556230D02*
X552030D01*
X552803Y1049362D01*
X554362Y1047803D01*
X556230Y1047030D01*
Y1051230D01*
D02*
G37*
G36*
X617970Y1046230D02*
X613770D01*
Y1042030D01*
X615638Y1042803D01*
X617197Y1044362D01*
X617970Y1046230D01*
D02*
G37*
G36*
X611230D02*
X607030D01*
X607803Y1044362D01*
X609362Y1042803D01*
X611230Y1042030D01*
Y1046230D01*
D02*
G37*
G36*
X629873Y1019940D02*
X629492D01*
X626302Y1019085D01*
X623443Y1017434D01*
X621108Y1015100D01*
X619457Y1012240D01*
X618602Y1009051D01*
Y1008670D01*
X629873D01*
Y1019940D01*
D02*
G37*
G36*
X506625Y1015790D02*
X506113D01*
Y1003520D01*
X518383D01*
Y1004033D01*
X517460Y1007476D01*
X515677Y1010564D01*
X513156Y1013085D01*
X510069Y1014867D01*
X506625Y1015790D01*
D02*
G37*
G36*
X503573D02*
X503060D01*
X499616Y1014867D01*
X496529Y1013085D01*
X494008Y1010564D01*
X492225Y1007476D01*
X491303Y1004033D01*
Y1003520D01*
X503573D01*
Y1015790D01*
D02*
G37*
G36*
X557425D02*
X553860D01*
X550416Y1014867D01*
X547329Y1013085D01*
X544808Y1010564D01*
X543025Y1007476D01*
X542103Y1004033D01*
Y1000468D01*
X543025Y997024D01*
X544808Y993936D01*
X547329Y991415D01*
X550416Y989633D01*
X553860Y988710D01*
X557425D01*
X560869Y989633D01*
X563956Y991415D01*
X566477Y993936D01*
X568260Y997024D01*
X569183Y1000468D01*
Y1004033D01*
X568260Y1007476D01*
X566477Y1010564D01*
X563956Y1013085D01*
X560869Y1014867D01*
X557425Y1015790D01*
D02*
G37*
G36*
X518383Y1000980D02*
X506113D01*
Y988710D01*
X506625D01*
X510069Y989633D01*
X513156Y991415D01*
X515677Y993936D01*
X517460Y997024D01*
X518383Y1000468D01*
Y1000980D01*
D02*
G37*
G36*
X503573D02*
X491303D01*
Y1000468D01*
X492225Y997024D01*
X494008Y993936D01*
X496529Y991415D01*
X499616Y989633D01*
X503060Y988710D01*
X503573D01*
Y1000980D01*
D02*
G37*
G36*
X733730Y965470D02*
X731862Y964697D01*
X730303Y963138D01*
X729530Y961270D01*
X733730D01*
Y965470D01*
D02*
G37*
G36*
X668770D02*
Y961270D01*
X672970D01*
X672197Y963138D01*
X670638Y964697D01*
X668770Y965470D01*
D02*
G37*
G36*
X666230D02*
X664362Y964697D01*
X662803Y963138D01*
X662030Y961270D01*
X666230D01*
Y965470D01*
D02*
G37*
%LPD*%
D41*
X707343Y982000D02*
X742500Y1017158D01*
Y1172500D01*
D42*
X388475Y1006959D02*
Y1207500D01*
D43*
X535000Y1224000D02*
D03*
D44*
X339400Y999437D02*
D03*
X390200D02*
D03*
X441000D02*
D03*
X504843Y1002250D02*
D03*
X555643D02*
D03*
D45*
X631143Y982000D02*
D03*
X656543D02*
D03*
X681943D02*
D03*
X707343D02*
D03*
Y1007400D02*
D03*
X681943D02*
D03*
X656543D02*
D03*
X631143D02*
D03*
D46*
X328475Y1187500D02*
D03*
X448475D02*
D03*
X328475Y1094790D02*
D03*
X448475D02*
D03*
D47*
X388475Y1207500D02*
D03*
D48*
X500000Y1205000D02*
D03*
X557500Y1052500D02*
D03*
X682500Y1205000D02*
D03*
Y1190000D02*
D03*
X612500Y1125000D02*
D03*
X500000Y1162500D02*
D03*
X497500Y1122500D02*
D03*
X530000Y1165000D02*
D03*
X690000Y1085000D02*
D03*
X727500Y1115000D02*
D03*
Y1137500D02*
D03*
X675000Y1135000D02*
D03*
X647500Y1190000D02*
D03*
Y1205000D02*
D03*
X612500Y1047500D02*
D03*
X735000Y960000D02*
D03*
X667500D02*
D03*
X612500Y1160000D02*
D03*
X717500Y1235000D02*
D03*
X742500Y1172500D02*
D03*
D49*
X384200Y1002685D02*
X388475Y1006959D01*
X384200Y999437D02*
Y1002685D01*
M02*
