G04*
G04 #@! TF.GenerationSoftware,Altium Limited,Altium Designer,23.10.1 (27)*
G04*
G04 Layer_Color=8388736*
%FSLAX44Y44*%
%MOMM*%
G71*
G04*
G04 #@! TF.SameCoordinates,FE8EC528-225C-4A11-B971-79AFC16B1169*
G04*
G04*
G04 #@! TF.FilePolarity,Negative*
G04*
G01*
G75*
%ADD25R,1.8532X1.4032*%
%ADD26R,1.1032X1.0032*%
%ADD27R,1.6032X1.5032*%
%ADD28R,3.9000X1.9000*%
%ADD29R,2.0032X1.5032*%
%ADD30R,4.0032X2.2032*%
%ADD31R,1.7032X2.2032*%
%ADD32R,1.8032X1.7032*%
%ADD33R,2.2032X1.4532*%
%ADD34O,2.3032X1.6032*%
%ADD35C,3.2032*%
%ADD36C,2.4032*%
%ADD37C,2.2032*%
%ADD38C,2.0032*%
%ADD39R,2.0032X2.0032*%
%ADD40C,0.8032*%
D25*
X707378Y1068000D02*
D03*
Y1040000D02*
D03*
X598000Y1013000D02*
D03*
Y985000D02*
D03*
X734000Y1068000D02*
D03*
Y1040000D02*
D03*
X680835Y1039707D02*
D03*
Y1067707D02*
D03*
X654293D02*
D03*
Y1039707D02*
D03*
X549000Y1156000D02*
D03*
Y1128000D02*
D03*
X507000Y1077000D02*
D03*
Y1105000D02*
D03*
D26*
X655000Y1100000D02*
D03*
X675000Y1109500D02*
D03*
Y1090500D02*
D03*
X506000Y1142000D02*
D03*
X526000Y1151500D02*
D03*
Y1132500D02*
D03*
D27*
X737835Y989000D02*
D03*
Y1005000D02*
D03*
D28*
X727500Y1154500D02*
D03*
Y1095500D02*
D03*
D29*
X717750Y1214500D02*
D03*
Y1185500D02*
D03*
X612207Y1185000D02*
D03*
Y1214000D02*
D03*
D30*
X664707Y1166500D02*
D03*
D31*
X641707Y1229500D02*
D03*
X664707D02*
D03*
X687707D02*
D03*
D32*
X480000Y1079000D02*
D03*
Y1115000D02*
D03*
D33*
X481287Y1143750D02*
D03*
Y1181250D02*
D03*
D34*
X626500Y1074508D02*
D03*
Y1099908D02*
D03*
X535500Y1074508D02*
D03*
Y1099908D02*
D03*
D35*
X535000Y1224000D02*
D03*
D36*
X339400Y999437D02*
D03*
X390200D02*
D03*
X441000D02*
D03*
X504843Y1002250D02*
D03*
X555643D02*
D03*
D37*
X631143Y982000D02*
D03*
X656543D02*
D03*
X681943D02*
D03*
X707343D02*
D03*
Y1007400D02*
D03*
X681943D02*
D03*
X656543D02*
D03*
X631143D02*
D03*
D38*
X328475Y1187500D02*
D03*
X448475D02*
D03*
X328475Y1094790D02*
D03*
X448475D02*
D03*
D39*
X388475Y1207500D02*
D03*
D40*
X500000Y1205000D02*
D03*
X557500Y1052500D02*
D03*
X682500Y1205000D02*
D03*
Y1190000D02*
D03*
X612500Y1125000D02*
D03*
X500000Y1162500D02*
D03*
X497500Y1122500D02*
D03*
X530000Y1165000D02*
D03*
X690000Y1085000D02*
D03*
X727500Y1115000D02*
D03*
Y1137500D02*
D03*
X675000Y1135000D02*
D03*
X647500Y1190000D02*
D03*
Y1205000D02*
D03*
X612500Y1047500D02*
D03*
X735000Y960000D02*
D03*
X667500D02*
D03*
X612500Y1160000D02*
D03*
X717500Y1235000D02*
D03*
X742500Y1172500D02*
D03*
M02*
