M48
;Layer_Color=9474304
;FILE_FORMAT=4:4
METRIC,LZ
;TYPE=PLATED
T01F00S00C0.3000
T02F00S00C1.1000
T03F00S00C1.1000
T04F00S00C1.3000
;TYPE=NON_PLATED
T05F00S00C3.0000
%
T01
X005575Y010525
X006125Y010475
Y01125
Y0116
X006475Y0119
X006825
X00675Y01135
X007275Y011375
Y01115
X0069Y01085
X007425Y011725
X0053Y01165
X005Y011625
X004975Y011225
X006675Y0096
X00735
X007175Y01235
X006825Y01205
X006475
X005
T02
X00631143Y00982
X00656543
X00681943
X00707343
Y010074
X00681943
X00656543
X00631143
T03
X003394Y00999437
X003902
X00441
X00504843Y0100225
X00555643
T04
X00328475Y0109479
X00328475Y011875
X00448475
X00448475Y0109479
X00388475Y012075
T05
X00535Y01224
M30
